<mxfile host="app.diagrams.net" modified="2023-08-29T08:25:55.024Z" agent="Mozilla/5.0 (Windows NT 10.0; Win64; x64) AppleWebKit/537.36 (KHTML, like Gecko) Chrome/116.0.0.0 Safari/537.36" version="21.6.8" etag="i56lXWPoGcblSLTg8te1" type="github">
  <diagram name="Страница — 1" id="bXXh936eV6pajn5nXXPS">
    <mxGraphModel>
      <root>
        <mxCell id="0" />
        <mxCell id="1" parent="0" />
      </root>
    </mxGraphModel>
  </diagram>
</mxfile>
